<?xml version="1.0" encoding="utf-8"?>
<!-- Generator: Adobe Illustrator 16.0.0, SVG Export Plug-In . SVG Version: 6.00 Build 0)  -->
<!DOCTYPE svg PUBLIC "-//W3C//DTD SVG 1.1//EN" "http://www.w3.org/Graphics/SVG/1.1/DTD/svg11.dtd">
<svg version="1.1" id="图层_1" xmlns="http://www.w3.org/2000/svg" xmlns:xlink="http://www.w3.org/1999/xlink" x="0px" y="0px"
	 width="100px" height="100px" viewBox="0 0 100 100" enable-background="new 0 0 100 100" xml:space="preserve">
<path fill="#8C8C8C" d="M76.22,33.031h4.093l0.492-1.81c1.089-4.051-1.325-8.22-5.396-9.302L45.88,14.046
	c-4.072-1.082-8.254,1.325-9.351,5.369l-0.34,1.249l34.814,9.274c1.872,0.499,3.551,1.442,4.925,2.74
	C76.046,32.789,76.144,32.907,76.22,33.031L76.22,33.031z M67.854,33.031L29.426,22.8c-1.956-0.527-4.044-0.25-5.799,0.756
	s-3.031,2.67-3.558,4.613l-1.311,4.862H67.854z M14.714,33.385l1.665-6.194c0.791-2.927,2.706-5.417,5.341-6.922
	c2.636-1.512,5.764-1.929,8.698-1.145l2.081,0.555l0.34-1.242c1.637-6.076,7.921-9.683,14.025-8.053l29.529,7.866
	c2.934,0.777,5.438,2.691,6.957,5.306c1.519,2.622,1.928,5.729,1.145,8.65l-0.264,0.964c5.584,0.867,9.697,5.653,9.697,11.272
	v34.163c0,6.298-5.133,11.403-11.466,11.403H17.544c-6.333,0-11.466-5.105-11.473-11.403V44.442
	C6.079,39.226,9.63,34.675,14.714,33.385L14.714,33.385z M9.894,44.435v34.169c0,4.203,3.427,7.603,7.651,7.609h64.918
	c4.224-0.007,7.65-3.413,7.65-7.609V44.442c0-4.204-3.427-7.609-7.65-7.609H17.544c-4.224,0-7.651,3.406-7.651,7.609V44.435z
	 M19.445,44.428c0-1.048,0.86-1.9,1.894-1.9h57.33c1.048,0,1.894,0.846,1.894,1.9c0,1.047-0.859,1.9-1.894,1.9h-57.33
	c-0.499,0-0.985-0.201-1.345-0.555C19.639,45.413,19.445,44.927,19.445,44.428L19.445,44.428z M63.373,82.412
	c-0.68,0-1.311-0.36-1.657-0.95c-0.34-0.59-0.34-1.311,0-1.9c0.347-0.583,0.978-0.95,1.657-0.95c1.055,0,1.908,0.854,1.908,1.9
	C65.281,81.56,64.428,82.412,63.373,82.412L63.373,82.412z M71.011,82.412c-0.68,0-1.312-0.36-1.651-0.95s-0.34-1.311,0-1.9
	c0.34-0.583,0.972-0.95,1.651-0.95c1.054,0,1.914,0.854,1.914,1.9C72.925,81.56,72.064,82.412,71.011,82.412L71.011,82.412z
	 M78.654,82.412c-0.687,0-1.317-0.36-1.657-0.95s-0.34-1.311,0-1.9c0.34-0.583,0.971-0.95,1.657-0.95c1.055,0,1.907,0.854,1.907,1.9
	C80.562,81.56,79.709,82.412,78.654,82.412L78.654,82.412z M78.654,82.412"/>
</svg>
