<?xml version="1.0" standalone="no"?><!DOCTYPE svg PUBLIC "-//W3C//DTD SVG 1.1//EN" "http://www.w3.org/Graphics/SVG/1.1/DTD/svg11.dtd"><svg t="1499778010047" class="icon" style="" viewBox="0 0 1024 1024" version="1.1" xmlns="http://www.w3.org/2000/svg" p-id="2431" xmlns:xlink="http://www.w3.org/1999/xlink" width="200" height="200"><defs><style type="text/css"></style></defs><path d="M803.113217 63.794955 219.804125 63.794955c-27.195386 0-52.771901 10.519588-72.01722 29.620621-19.286252 19.141966-29.907147 44.603871-29.907147 71.694879l0 692.079378c0 55.866379 45.723368 101.316523 101.925391 101.316523l583.309092 0c56.202023 0 101.925391-45.450145 101.925391-101.316523L905.039631 165.110455C905.038608 109.2451 859.31524 63.794955 803.113217 63.794955zM803.113217 104.727203c5.762237 0 11.332093 0.812505 16.620539 2.297322l-307.955814 205.776643L203.613374 106.883309c5.210675-1.411139 10.641361-2.157129 16.190751-2.157129L803.113217 104.72618zM864.10636 857.189833c0 33.295314-27.361161 60.384275-60.993143 60.384275L219.804125 917.574109c-33.630958 0-60.993143-27.088962-60.993143-60.384275L158.810982 165.110455c0-11.7056 3.358491-22.897499 9.597589-32.520671l331.999416 221.842551c3.440355 2.299369 7.405667 3.449565 11.369955 3.449565s7.9296-1.150196 11.369955-3.449565l331.522556-221.524303c5.965875 9.328459 9.435906 20.36891 9.435906 32.202423L864.10636 857.189833z" p-id="2432" fill="#e6e6e6"></path><path d="M646.308939 647.437645c11.30344 0 20.466124-9.162684 20.466124-20.466124s-9.162684-20.466124-20.466124-20.466124L542.022781 606.505397 652.607388 451.907367c6.576789-9.193383 4.455475-21.976524-4.738931-28.55229-9.191336-6.576789-21.976524-4.455475-28.55229 4.738931l-102.893438 143.844106L413.528268 428.094008c-6.575766-9.193383-19.35993-11.317767-28.55229-4.738931-9.193383 6.575766-11.314697 19.358907-4.738931 28.55229L490.822678 606.505397 381.572462 606.505397c-11.30344 0-20.466124 9.162684-20.466124 20.466124s9.162684 20.466124 20.466124 20.466124l114.384144 0 0 59.999512L381.572462 707.437158c-11.30344 0-20.466124 9.162684-20.466124 20.466124s9.162684 20.466124 20.466124 20.466124l114.384144 0 0 73.845869c0 11.30344 9.162684 20.466124 20.466124 20.466124s20.466124-9.162684 20.466124-20.466124l0-73.845869 109.420085 0c11.30344 0 20.466124-9.162684 20.466124-20.466124s-9.162684-20.466124-20.466124-20.466124L536.888853 707.437158l0-59.999512L646.308939 647.437645z" p-id="2433" fill="#7b7d81"></path></svg>