<?xml version="1.0" encoding="utf-8"?>
<!-- Generator: Adobe Illustrator 16.0.0, SVG Export Plug-In . SVG Version: 6.00 Build 0)  -->
<!DOCTYPE svg PUBLIC "-//W3C//DTD SVG 1.1//EN" "http://www.w3.org/Graphics/SVG/1.1/DTD/svg11.dtd">
<svg version="1.1" id="Layer_1" xmlns="http://www.w3.org/2000/svg" xmlns:xlink="http://www.w3.org/1999/xlink" x="0px" y="0px"
	 width="35px" height="39px" viewBox="0 0 187 209" enable-background="new 0 0 187 209" xml:space="preserve">
<g>
	<path fill-rule="evenodd" clip-rule="evenodd" fill="#BB402A" d="M163.741,209.052H23.751C10.23,206.574,0,195.096,0,181.299
		V57.675c6.121,2.164,11.915,5.161,17.877,7.719c10.316,4.932,21.105,8.683,31.843,12.542c0.854,12.123,6.949,23.822,16.675,31.153
		c16.373,13.433,42.643,11.549,57.45-3.38c7.74-7.209,12.244-17.516,13.073-28.003c17.326-5.646,33.751-13.625,50.075-21.625
		v130.412C184.8,197.897,175.525,206.893,163.741,209.052z M82.988,46.364c3.702,7.781,7.108,15.69,10.769,23.501
		c3.338-7.811,7.138-15.41,10.29-23.291c4.181-0.393,8.37-0.13,12.56-0.181c-4.859,8.733-9.984,17.325-14.878,26.048
		c3.609,0,7.222,0,10.831,0.02c-0.014,2.487-0.014,4.966,0.009,7.451c-4.332,0.099-8.672,0.04-13.017,0.04
		c-0.04,2.177-0.04,4.363,0,6.548c4.354,0.028,8.716-0.151,13.065,0.111c-0.071,2.456-0.08,4.903-0.057,7.359
		c-4.345,0.06-8.686,0.029-13.025,0.029c-0.022,3.591-0.022,7.169-0.009,10.759c-4.192,0.029-8.375,0.029-12.564,0
		c0.02-3.59,0.029-7.18-0.02-10.768c-4.494,0.009-8.996,0.02-13.486,0c-0.021-2.496-0.021-4.994,0-7.49
		c4.482-0.02,8.973-0.031,13.455,0.009c0.12-2.206,0.1-4.412-0.08-6.605c-4.462,0.12-8.914,0.048-13.375,0.048
		c-0.021-2.496-0.021-4.992,0-7.49c3.679-0.02,7.368-0.02,11.048-0.02c-4.802-8.703-9.705-17.354-14.498-26.068
		C74.336,46.373,78.656,46.393,82.988,46.364z M186.994,38.051c-16.776,9.195-33.751,18.338-51.977,24.344
		c-3.75-10.498-11.052-19.953-21.168-24.936c-11.939-6.446-26.979-6.807-39.222-0.942c-10.899,4.841-19.4,14.557-23.08,25.857
		c-8.753-2.837-17.356-6.187-25.758-9.935C17.113,48.301,8.625,43.777,0,39.534V28.253C0,12.65,13.083,0,29.22,0h129.055
		c14.302,0,26.197,9.939,28.719,23.06V38.051z"/>
</g>
</svg>
